<svg width="200" height="87" viewBox="0 0 200 87" fill="none" xmlns="http://www.w3.org/2000/svg">
    <path d="M71.8041 36.0396H81.0425L75.7482 66.1845H66.5098L71.8041 36.0396Z" fill="#231F20"/>
    <path d="M72.3972 27.9384C72.9384 25.1286 75.5294 22.9147 78.8257 22.9147C82.1221 22.9147 83.9041 25.1286 83.4176 27.9384C82.8763 30.6935 80.2853 32.9074 77.0437 32.9074C73.8021 32.9074 71.9106 30.6935 72.3972 27.9384Z" fill="#FFC93B"/>
    <path d="M97.3025 57.8645L90.9833 66.1845H80.9907L93.6319 50.7882L86.0143 36.0396H96.387L100.708 44.4114L107.027 36.0396H117.02L104.272 51.2747L111.996 66.1845H101.624L97.3025 57.8645Z" fill="#231F20"/>
    <path d="M122.205 36.0396H131.443L126.149 66.1845H116.911L122.205 36.0396Z" fill="#231F20"/>
    <path d="M122.801 27.9384C123.342 25.1286 125.933 22.9147 129.229 22.9147C132.526 22.9147 134.308 25.1286 133.821 27.9384C133.28 30.6935 130.689 32.9074 127.447 32.9074C124.206 32.9074 122.314 30.6935 122.801 27.9384Z" fill="#1181C4"/>
    <path d="M135.98 43.7119L137.331 36.0396H141.004L142.3 28.6927H151.538L150.242 36.0396H156.294L154.944 43.7119H148.892L146.73 55.8118C146.46 57.5939 147.056 58.351 149.108 58.351H152.405L151 66.1845H146.301C140.034 66.1845 136.145 63.5388 137.495 55.7053L139.657 43.7119H135.98Z" fill="#231F20"/>
    <path d="M171.256 66.6163C163.367 66.6163 158.021 61.5927 158.021 53.9751C158.021 43.5478 165.961 35.6078 176.659 35.6078C184.547 35.6078 190.003 40.6861 190.003 48.3037C190.003 58.8376 181.847 66.6163 171.258 66.6163H171.256ZM172.551 58.6763C177.304 58.6763 180.439 53.8686 180.439 49.1674C180.439 45.3845 178.116 43.5478 175.306 43.5478C170.498 43.5478 167.527 48.3555 167.527 53.1633C167.527 56.8367 169.689 58.6735 172.551 58.6735V58.6763Z" fill="#231F20"/>
    <path d="M35.3256 12.306L23.2919 12.8415C22.2123 12.8904 21.3803 13.8145 21.4465 14.8941L25.8282 71.1333L35.3256 12.306Z" fill="#65BEEB"/>
    <path d="M21.5588 16.6992L11.3099 20.2057C10.3224 20.5425 9.78121 21.6048 10.0864 22.6009L25.831 71.1333L21.5588 16.6992Z" fill="#FFC93B"/>
    <path d="M64.0023 14.8308L70.2581 15.7722C71.6026 15.9737 72.5152 17.2404 72.2849 18.5791L62.5801 74.8788C62.3613 76.1455 61.1925 77.0207 59.9143 76.8738L54.0874 76.2002C53.0107 76.0764 52.1355 75.2501 51.9743 74.1792C51.5885 71.6256 50.0541 67.1374 44.1063 66.1356C43.9854 66.1154 43.8644 66.1039 43.7435 66.101C42.7791 66.0866 38.8983 66.3544 36.2728 71.3752C35.7891 72.2993 34.7614 72.8031 33.7336 72.6304L27.3309 71.5565C26.0038 71.3349 25.1113 70.071 25.3474 68.7467L35.4091 11.8367C35.6193 10.642 36.7478 9.83878 37.9454 10.0288L44.1091 11.0076C45.2031 11.1803 46.0495 12.0757 46.1416 13.1783C46.3576 15.7607 47.7797 20.1855 54.9223 20.6433C54.9223 20.6433 59.3587 21.196 61.4055 16.2875C61.8316 15.2655 62.9026 14.6667 63.9966 14.8308H64.0023Z" fill="#1181C4"/>
    <path d="M45.0102 43.7119L46.3604 36.0396H50.0339L51.3294 28.6927H60.5678L59.2723 36.0396H65.3237L63.9735 43.7119H57.9221L55.76 55.8118C55.4894 57.5939 56.0854 58.351 58.138 58.351H61.4343L60.0294 66.1845H55.3311C49.0637 66.1845 45.1743 63.5388 46.5245 55.7053L48.6866 43.7119H45.0102Z" fill="white"/>
</svg>
    